HIERARCHY
ROOT Hips
{
	OFFSET 0.00000 0.00000 0.00000
	CHANNELS 6 Xposition Yposition Zposition Zrotation Yrotation Xrotation 
	JOINT LHipJoint
	{
		OFFSET 0 0 0
		CHANNELS 3 Zrotation Yrotation Xrotation
		JOINT LeftHip
		{
			OFFSET 1.44361 -1.63093 0.70831
			CHANNELS 3 Zrotation Yrotation Xrotation
			JOINT LeftKnee
			{
				OFFSET 2.20103 -6.04728 0.00000
				CHANNELS 3 Zrotation Yrotation Xrotation
				JOINT LeftAnkle
				{
					OFFSET 2.54154 -6.98283 0.00000
					CHANNELS 3 Zrotation Yrotation Xrotation
					JOINT LeftToe
					{
						OFFSET 0.05971 -0.16406 1.77582
						CHANNELS 3 Zrotation Yrotation Xrotation
						End Site
						{
							OFFSET 0.00000 -0.00000 0.90832
						}
					}
				}
			}
		}
	}
	JOINT RHipJoint
	{
		OFFSET 0 0 0
		CHANNELS 3 Zrotation Yrotation Xrotation
		JOINT RightHip
		{
			OFFSET -1.65838 -1.63093 0.70830
			CHANNELS 3 Zrotation Yrotation Xrotation
			JOINT RightKnee
			{
				OFFSET -2.26926 -6.23475 0.00000
				CHANNELS 3 Zrotation Yrotation Xrotation
				JOINT RightAnkle
				{
					OFFSET -2.34808 -6.45129 0.00000
					CHANNELS 3 Zrotation Yrotation Xrotation
					JOINT RightToe
					{
						OFFSET -0.18633 -0.51195 1.68539
						CHANNELS 3 Zrotation Yrotation Xrotation
						End Site
						{
							OFFSET -0.00000 -0.00000 0.88927
						}
					}
				}
			}
		}
	}
	JOINT lowerback
	{
		OFFSET 0 0 0
		CHANNELS 3 Zrotation Yrotation Xrotation
		JOINT Chest
		{
			OFFSET -0.10393 2.01691 0.06920
			CHANNELS 3 Zrotation Yrotation Xrotation
			JOINT Chest2
			{
				OFFSET 0.04092 2.01302 -0.05283
				CHANNELS 3 Zrotation Yrotation Xrotation
				JOINT lowerneck
				{
					OFFSET 0 0 0
					CHANNELS 3 Zrotation Yrotation Xrotation
					JOINT Neck
					{
						OFFSET -0.02870 1.58978 -0.03113
						CHANNELS 3 Zrotation Yrotation Xrotation
						JOINT Head
						{
							OFFSET 0.11532 1.54326 -0.29195
							CHANNELS 3 Zrotation Yrotation Xrotation
							End Site
							{
								OFFSET 0.04056 1.59999 -0.09535
							}
						}
					}
				}
				JOINT LeftCollar
				{
					OFFSET 0 0 0
					CHANNELS 3 Zrotation Yrotation Xrotation
					JOINT LeftShoulder
					{
						OFFSET 3.30641 1.15764 0.01104
CHANNELS 3 Zrotation Xrotation Yrotation
						JOINT LeftElbow
						{
OFFSET 0 -4.632080 0.000000
CHANNELS 3 Zrotation Xrotation Yrotation
							JOINT LeftWrist
							{
OFFSET 0 -3.419240 -0.000000
CHANNELS 3 Zrotation Xrotation Yrotation
								JOINT lhand
								{
									OFFSET 0 0 0
CHANNELS 3 Zrotation Xrotation Yrotation
									JOINT LFingers
									{
OFFSET 0 -0.625370 -0.000000
CHANNELS 3 Zrotation Xrotation Yrotation
										End Site
										{
OFFSET 0 -0.504190 -0.000000
										}
									}
								}
								JOINT LThumb
								{
OFFSET 0 0.000000 0.000000
CHANNELS 3 Zrotation Xrotation Yrotation
									End Site
									{
OFFSET 0 -0.511890 0.511890
									}
								}
							}
						}
					}
				}
				JOINT RightCollar
				{
					OFFSET 0 0 0
					CHANNELS 3 Zrotation Yrotation Xrotation
					JOINT RightShoulder
					{
						OFFSET -3.78081 1.02180 -0.16609
CHANNELS 3 Zrotation Xrotation Yrotation
						JOINT RightElbow
						{
OFFSET 0 -4.406400 -0.000000
CHANNELS 3 Zrotation Xrotation Yrotation
							JOINT RightWrist
							{
OFFSET 0 -3.446750 0.000000
CHANNELS 3 Zrotation Xrotation Yrotation
								JOINT rhand
								{
									OFFSET 0 0 0
CHANNELS 3 Zrotation Xrotation Yrotation
									JOINT RFingers
									{
OFFSET 0 -0.513670 -0.000000
CHANNELS 3 Zrotation Xrotation Yrotation
										End Site
										{
OFFSET 0 -0.414140 -0.000000
										}
									}
								}
								JOINT RThumb
								{
OFFSET 0 0.000000 0.000000
CHANNELS 3 Zrotation Xrotation Yrotation
									End Site
									{
OFFSET 0 -0.420460 0.420460
									}
								}
							}
						}
					}
				}
			}
		}
	}
}
MOTION
Frames: 6
Frame Time: 0.008333333333333333
9.791631 17.143282 -0.037328 -0.821504 0.336163 12.122703 0.000000 0.000000 0.000000 -18.812866 -15.534861 -15.462202 1.473143 7.669691 21.715292 1.276475 0.896071 -21.696517 11.310799 -18.083825 -63.786720 0.000000 0.000000 0.000000 7.113332 15.184187 -23.361430 -2.382886 -9.621690 27.760053 -0.898076 -2.172671 -18.811664 -2.223619 9.316733 -26.791320 -9.494380 1.086765 -1.293826 0.624827 1.786638 4.007336 6.076337 0.516380 4.631438 -1.611744 -1.503886 -5.604661 6.568259 -3.522019 26.943308 2.219303 -1.117665 9.535587 0.000000 0.000000 0.000000 10.048454 -19.235808 -35.443001 10.384200 -17.338268 1.587489 26.986957 12.225606 17.235378 0.000000 0.000000 0.000000 -7.125000 0.000000 0.000000 -0.612365 10.785637 -0.487003 0.000000 0.000000 0.000000 -14.672530 6.666372 19.352002 -15.024613 -24.180426 -3.236019 -11.038711 19.228212 39.209507 0.000000 0.000000 0.000000 7.125000 0.000000 0.000000 32.709215 66.967808 -18.091874
9.764131 17.139158 0.092280 -0.766892 1.008506 11.874430 0.000000 0.000000 0.000000 -18.957231 -15.496974 -14.559112 1.447969 7.606537 21.525340 1.319959 0.561911 -21.933541 11.336037 -18.095667 -63.868064 0.000000 0.000000 0.000000 6.444438 15.483777 -23.871901 -2.305562 -9.475401 27.294011 -0.824422 -3.060833 -18.523436 -2.051180 8.971332 -25.706106 -9.667774 0.905423 -1.073615 0.767265 1.528037 4.122964 6.311236 0.372203 4.669954 -1.382780 -1.580386 -5.462439 6.520905 -3.661043 27.085807 2.152637 -1.164179 9.562771 0.000000 0.000000 0.000000 9.691685 -20.159052 -36.396004 10.311032 -17.224638 1.565746 26.744159 12.687924 17.191418 0.000000 0.000000 0.000000 -7.125000 0.000000 0.000000 -0.767520 10.872555 -0.608969 0.000000 0.000000 0.000000 -14.244143 7.801102 18.966941 -14.865492 -23.958311 -3.171133 -11.556897 19.756948 38.700911 0.000000 0.000000 0.000000 7.125000 0.000000 0.000000 31.423551 66.706479 -17.137293
9.734415 17.131881 0.223587 -0.555719 1.727274 11.722845 0.000000 0.000000 0.000000 -19.240569 -15.489921 -13.810268 1.437312 7.579744 21.444753 1.373631 0.054540 -22.193435 11.358836 -18.106208 -63.941397 0.000000 0.000000 0.000000 5.603538 15.493692 -24.486792 -2.224124 -9.317997 26.795257 -0.740165 -3.979180 -18.175431 -2.033391 8.935233 -25.592909 -9.944151 0.685519 -0.986654 0.849706 1.238711 4.245289 6.543480 0.204379 4.801616 -1.027253 -1.607336 -5.356578 6.386614 -3.721720 27.145801 2.039430 -1.171509 9.559721 0.000000 0.000000 0.000000 9.227222 -21.037978 -37.248383 10.289493 -17.191145 1.559451 26.411739 13.541307 16.794503 0.000000 0.000000 0.000000 -7.125000 0.000000 0.000000 -0.948068 11.358391 -0.742747 0.000000 0.000000 0.000000 -13.647036 8.816035 18.362808 -14.739342 -23.781720 -3.120129 -12.721340 20.568585 38.185080 0.000000 0.000000 0.000000 7.125000 0.000000 0.000000 29.447472 66.620263 -15.921515
9.703530 17.121729 0.357151 -0.184825 2.431777 11.679758 0.000000 0.000000 0.000000 -19.686367 -15.582169 -13.195502 1.441974 7.591472 21.480002 1.429252 -0.498350 -22.460403 11.383038 -18.117445 -64.019243 0.000000 0.000000 0.000000 4.598261 15.217317 -25.257998 -2.144067 -9.159639 26.296265 -0.657962 -4.780810 -17.803735 -2.041799 8.952515 -25.646866 -10.337209 0.427326 -0.999650 0.897105 0.913830 4.342529 6.804394 0.012941 4.976003 -0.828610 -1.637914 -5.189151 6.309065 -3.769457 27.086760 1.973393 -1.186358 9.504519 0.000000 0.000000 0.000000 8.576937 -21.830711 -38.063274 10.322936 -17.243139 1.569303 26.033955 14.425375 16.192096 0.000000 0.000000 0.000000 -7.125000 0.000000 0.000000 -1.142922 12.073060 -0.878371 0.000000 0.000000 0.000000 -12.986492 9.846896 17.773757 -14.619445 -23.613227 -3.071912 -13.928298 21.641538 37.726508 0.000000 0.000000 0.000000 7.125000 0.000000 0.000000 27.508872 66.585073 -14.781887
9.670147 17.108888 0.493671 0.160516 3.050975 11.683069 0.000000 0.000000 0.000000 -20.079357 -15.667466 -12.643522 1.452081 7.616834 21.556347 1.470762 -0.640768 -22.743361 11.551851 -18.194512 -64.560964 0.000000 0.000000 0.000000 3.672053 14.845750 -26.091175 -2.064529 -8.998954 25.792320 -0.569440 -5.463788 -17.292527 -2.050104 8.969535 -25.700190 -10.651754 0.201207 -0.983837 0.914238 0.625300 4.407121 6.988251 -0.152946 5.096202 -0.274186 -1.607991 -5.140321 5.810095 -3.686461 27.163088 1.712460 -1.142715 9.501584 0.000000 0.000000 0.000000 7.910111 -22.512906 -39.217818 10.419277 -17.392678 1.598050 25.783339 14.287132 15.890993 0.000000 0.000000 0.000000 -7.125000 0.000000 0.000000 -1.283243 12.437958 -0.976809 0.000000 0.000000 0.000000 -12.147354 10.918013 16.998177 -14.495193 -23.438121 -3.022276 -14.396495 22.607755 37.531315 0.000000 0.000000 0.000000 7.125000 0.000000 0.000000 26.734952 66.554697 -14.321088
9.632069 17.093146 0.633928 0.351548 3.573829 11.673183 0.000000 0.000000 0.000000 -20.250225 -15.651637 -12.138564 1.469771 7.661116 21.689403 1.508038 -0.481277 -23.083671 11.815307 -18.310971 -65.401567 0.000000 0.000000 0.000000 3.005821 14.523638 -26.862671 -1.978497 -8.820726 25.236503 -0.464735 -6.117681 -16.560442 -2.036865 8.942350 -25.615231 -10.814476 0.030715 -0.929080 0.964236 0.398854 4.465780 7.123112 -0.280342 5.176152 0.141691 -1.582468 -5.268907 5.502780 -3.648067 27.342804 1.538184 -1.108509 9.577745 0.000000 0.000000 0.000000 7.193259 -23.145107 -40.631989 10.549986 -17.595119 1.637368 25.595800 13.442196 15.986849 0.000000 0.000000 0.000000 -7.125000 0.000000 0.000000 -1.416481 12.360247 -1.080795 0.000000 0.000000 0.000000 -11.171511 11.861051 15.880591 -14.328871 -23.202763 -2.956455 -14.391157 23.222196 37.645729 0.000000 0.000000 0.000000 7.125000 0.000000 0.000000 26.889436 66.651989 -14.468138
